PathFileType	4	(X/Y/Z)	C:\Users\WrightLab\Desktop\Jo\P2_Trial20.trc
DataRate	CameraRate	NumFrames	NumMarkers	Units	OrigDataRate	OrigDataStartFrame	OrigNumFrames
100.00	100.00	       15	19	mm	100.00	197	       787
Frame#	Time	Headset_Front			Headset_Back			Headset_Left			Headset_Right			Left_Shoulder			Right_Shoulder			Sternum			C7			Left Elbow			Right Elbow			Left Wrist			Right Wrist			Left ASIS			Right ASIS			S2			Left Knee			Right Knee			Left Ankle			Right Ankle			
		X1	Y1	Z1	X2	Y2	Z2	X3	Y3	Z3	X4	Y4	Z4	X5	Y5	Z5	X6	Y6	Z6	X7	Y7	Z7	X8	Y8	Z8	X9	Y9	Z9	X10	Y10	Z10	X11	Y11	Z11	X12	Y12	Z12	X13	Y13	Z13	X14	Y14	Z14	X15	Y15	Z15	X16	Y16	Z16	X17	Y17	Z17	X18	Y18	Z18	X19	Y19	Z19	

197	1.960	-144.85260	1429.37732	1308.54407				-161.40509	1587.28198	1440.26453				-149.17570	1433.33777	1476.96301	175.65382	1509.51392	1472.59290				18.66088	1499.55627	1582.33984	-321.20883	1031.25891	1428.02478	325.31970	1267.63367	1612.01550				311.26755	1199.24658	1434.55896	40.41381	1068.18994	1470.27222	170.64931	1066.38220	1494.00916	62.09928	1024.27527	1740.79199	-60.56497	481.95950	1604.31067	280.10413	614.30475	1639.07019	-13.39486	132.76518	1592.54297	282.01672	181.80846	1690.73914	
198	1.970	-144.58910	1429.96350	1307.02039				-160.90471	1587.91040	1439.12170				-148.96025	1433.57324	1476.19324	174.76093	1509.96973	1469.26746				18.98682	1499.77026	1581.70728	-317.37042	1034.27026	1429.93945	325.68390	1267.33020	1610.12000				311.16037	1199.28955	1431.12085	40.10587	1068.12097	1467.93164	170.57056	1066.71509	1490.75964	62.53465	1023.67975	1738.20642	-59.86520	482.35641	1602.62427	281.26907	614.03131	1635.93152	-13.49904	132.58128	1592.50781	283.98663	181.74905	1687.94861	
199	1.980	-144.22937	1430.56213	1305.44299				-160.28220	1588.42163	1437.90625				-148.39064	1433.61047	1474.77551	174.41281	1509.51746	1466.66602	25.80820	1337.96521	1427.19238	19.91836	1499.58716	1579.87842	-314.75220	1037.94421	1432.08887	326.11807	1266.61646	1606.70679				310.71310	1199.10974	1428.16443	40.54387	1067.08252	1466.17041	170.44513	1066.29822	1487.96021	63.18452	1023.42816	1735.09497	-60.61015	482.17242	1600.81799	282.00327	614.24103	1631.75354	-13.54445	132.47052	1592.43103	285.92072	181.80943	1682.32727	
200	1.990	-143.84947	1431.16675	1303.79993				-159.23662	1588.45520	1435.88086				-147.89857	1433.41162	1473.17102	175.13554	1509.02173	1464.79639	25.85301	1338.15076	1425.31335	21.00315	1499.49072	1577.97241	-310.96219	1041.26807	1433.87012	326.32855	1266.24719	1604.15308				310.55908	1198.89001	1424.82092	41.20182	1067.32764	1464.82703	171.25542	1066.61475	1485.82483	64.16747	1022.92798	1732.20728	-60.77106	481.53415	1600.17151	282.68048	613.41461	1625.44995	-13.62231	132.38013	1592.45850	287.96930	182.09592	1680.18506	
201	2.000	-143.50136	1431.86731	1301.96924				-158.49710	1589.31689	1434.56042				-147.60805	1434.31140	1471.63684	175.75261	1509.02368	1463.21912	26.23925	1337.81580	1422.51550	22.06827	1499.67542	1576.21069	-307.53857	1044.55640	1436.05811	320.67212	1268.08801	1612.41406				310.42114	1198.84155	1421.24463	41.56773	1068.23413	1459.83484	171.92896	1065.86621	1483.25562	64.81129	1022.94635	1730.41260	-60.93235	481.16504	1599.54944	284.39157	613.65076	1620.84888	-13.65552	132.26160	1592.43689	290.81186	181.51620	1674.69763	
202	2.010	-143.17805	1432.54541	1300.16614				-157.93141	1589.89941	1433.57227				-147.35663	1434.46326	1470.77747	176.77223	1508.56152	1460.64075	26.48023	1337.79602	1419.45996	23.44815	1499.62305	1573.98743	-303.67145	1047.83838	1437.75684	326.35803	1269.03259	1609.41467				310.54248	1198.67834	1418.58484	41.08790	1067.80676	1457.60046	171.72705	1065.91748	1480.33887	65.77419	1022.56830	1728.36890	-61.03603	481.07935	1599.36572	285.73965	614.13483	1616.72156	-13.73255	132.13608	1592.45496	293.27951	181.86049	1670.61646	
203	2.020	-142.74164	1433.29150	1298.23950				-156.71751	1590.23535	1431.36694				-147.09846	1434.80457	1470.10278	176.98723	1508.50342	1458.26721	26.38293	1338.41101	1416.50037	24.58024	1499.39197	1572.18286	-299.87137	1051.17554	1439.54065	322.55637	1266.49341	1606.91919				310.81754	1198.42126	1415.39233	41.99791	1067.87817	1455.62488	172.23080	1065.73621	1477.07495	66.91167	1023.07605	1725.55261	-60.87658	481.08609	1598.17883	285.98904	613.16559	1611.85413	-14.39943	132.49634	1592.06567	295.93417	180.75104	1665.66895	
204	2.030	-142.02197	1434.02747	1296.33911				-155.81339	1590.21143	1430.56299				-146.11026	1435.06958	1467.82239	178.70200	1508.25305	1455.32117	26.69661	1338.08215	1414.61804	25.60160	1499.49658	1570.31116	-296.57965	1054.46655	1441.34399	323.02747	1266.29272	1604.19604				311.09476	1198.30286	1412.13647	42.25059	1067.81958	1453.29468	172.38202	1065.21802	1474.47363	67.69509	1022.96741	1723.73059	-60.74150	481.40607	1596.52332	287.49609	613.50726	1608.35632	-14.49055	132.37607	1592.04065	299.14392	179.91924	1658.83447	
205	2.040	-141.28036	1434.75684	1294.32715				-154.69698	1591.09766	1428.92346				-145.27019	1435.49622	1465.97900	179.69978	1507.94519	1453.13757				27.22583	1499.29065	1567.53479	-292.74789	1057.77271	1442.67737	328.41052	1266.82996	1601.04309				311.45935	1198.52551	1408.96912	42.19603	1067.30786	1450.19507	172.82016	1065.31482	1471.57703	68.74169	1021.87122	1720.83887	-61.24261	481.35947	1594.38647	289.12527	612.77136	1605.08447	-14.58416	132.27267	1592.03467	300.64395	179.93491	1651.99976	
206	2.050	-140.47850	1435.51697	1292.20605				-153.17101	1591.74915	1426.74585				-144.89627	1435.55933	1465.30249	180.66418	1507.44531	1450.36731				28.27513	1499.23840	1565.98682	-290.28592	1061.95386	1443.80554	324.90524	1264.41797	1598.19751				311.98840	1198.55237	1405.50476	42.33865	1067.34436	1447.83911	172.47021	1064.83777	1468.39380	69.96684	1021.38879	1716.86255	-61.33635	481.50275	1592.92664	289.40448	612.47083	1599.83215	-14.66352	132.19553	1592.03723	304.53741	179.94394	1646.19543	
207	2.060	-139.63054	1436.16785	1290.20398				-152.44534	1592.26697	1426.55847				-143.73557	1436.12537	1463.02808	181.93295	1507.07898	1448.58252				30.10979	1498.75537	1562.93518	-286.67413	1065.80713	1444.78979	326.01285	1263.71338	1594.93262	-208.87511	1131.83838	1571.52002	312.46957	1198.57227	1402.55823	42.42968	1066.77869	1445.90344	173.50090	1065.05627	1465.81580	70.40406	1021.41888	1714.42285	-61.13861	481.74161	1592.07483	290.79645	612.32349	1595.83496	-14.72484	132.06111	1592.01270	307.55893	178.62195	1638.97925	
208	2.070	-138.87146	1436.89832	1287.97290				-150.58614	1592.57288	1423.92383				-142.83026	1435.56274	1461.57935	183.05566	1506.55310	1445.91138				31.51002	1498.73853	1561.02686	-283.62964	1067.72632	1439.73572	327.07227	1263.00098	1592.03955				312.95346	1198.32739	1399.47937	43.34153	1066.58862	1442.41528	174.01659	1064.87695	1462.56287	71.02061	1020.92230	1711.95752	-61.24074	481.50107	1591.52808	291.61139	611.84351	1590.36633	-14.78650	131.95451	1591.95056	309.47064	178.61913	1631.52551	
209	2.080	-137.72639	1437.52112	1285.72400				-148.89410	1592.98596	1421.87573				-141.78882	1435.82642	1459.91968	184.88850	1506.22168	1443.92749				33.07712	1498.61694	1559.03821	-280.62814	1072.34839	1439.80188	328.34238	1262.46533	1589.04358	-201.95285	1134.53040	1572.89087	313.95993	1198.44580	1396.07263	43.69447	1066.35046	1441.27893	174.17111	1064.13745	1459.20874	72.31266	1020.52521	1708.62170	-61.37739	481.85010	1588.88757	291.63571	611.52502	1586.15186	-14.89055	131.89561	1591.92908	313.35205	178.66032	1620.88245	
210	2.090	-136.48175	1438.24548	1283.43469				-147.41966	1593.10254	1420.03955				-140.22006	1435.99756	1457.48669	185.94971	1506.27588	1441.26367				34.53445	1498.29199	1557.28357	-276.94083	1075.65112	1439.94446	329.91351	1261.82141	1585.37451	-198.51854	1135.85925	1574.33374	314.95145	1198.35229	1392.74329	44.53049	1066.40930	1436.58594	175.37233	1063.80469	1456.77759	73.23354	1020.98499	1705.98560	-60.74249	481.08987	1587.03760	292.57172	610.78857	1581.64319	-14.97317	131.77858	1591.86523	315.46896	177.23331	1610.96790	
211	2.100	-135.25371	1438.78809	1281.12646				-145.91824	1593.26697	1417.77759				-139.15491	1436.53381	1455.66919	187.70340	1506.07581	1438.74902				36.43488	1498.07971	1554.44446	-274.72647	1080.90405	1440.53064	331.17386	1261.14563	1582.42578	-194.45848	1137.53333	1573.76819	316.05991	1198.49268	1389.70850	45.45758	1066.26392	1435.15442	175.92348	1063.35266	1453.80798	74.33611	1020.33136	1703.75122	-61.02871	480.87552	1585.98987	292.85361	610.43555	1577.03748	-15.07436	131.63330	1591.73083	319.33505	176.46141	1602.28809	
